<mxfile host="app.diagrams.net" modified="2023-01-26T12:24:29.288Z" agent="5.0 (Windows NT 10.0; Win64; x64) AppleWebKit/537.36 (KHTML, like Gecko) Chrome/97.0.4692.71 Safari/537.36" etag="Otn0_lW-CR3mfgR3vcVO" version="20.8.10" type="github">
  <diagram name="第 1 页" id="-Z74p8lJFDarNPudVoHj">
    <mxGraphModel dx="2261" dy="796" grid="1" gridSize="10" guides="1" tooltips="1" connect="1" arrows="1" fold="1" page="1" pageScale="1" pageWidth="827" pageHeight="1169" math="0" shadow="0">
      <root>
        <mxCell id="0" />
        <mxCell id="1" parent="0" />
        <mxCell id="rx1L_XoNALAJtBJvjtT4-5" style="edgeStyle=orthogonalEdgeStyle;rounded=0;orthogonalLoop=1;jettySize=auto;html=1;fontSize=18;" edge="1" parent="1" source="rx1L_XoNALAJtBJvjtT4-1" target="rx1L_XoNALAJtBJvjtT4-2">
          <mxGeometry relative="1" as="geometry" />
        </mxCell>
        <mxCell id="rx1L_XoNALAJtBJvjtT4-1" value="&lt;font style=&quot;font-size: 18px;&quot;&gt;createBeanInstance&lt;/font&gt;" style="strokeWidth=2;html=1;shape=mxgraph.flowchart.start_1;whiteSpace=wrap;" vertex="1" parent="1">
          <mxGeometry x="320" y="170" width="200" height="80" as="geometry" />
        </mxCell>
        <mxCell id="rx1L_XoNALAJtBJvjtT4-4" style="edgeStyle=orthogonalEdgeStyle;rounded=0;orthogonalLoop=1;jettySize=auto;html=1;fontSize=18;" edge="1" parent="1" source="rx1L_XoNALAJtBJvjtT4-2" target="rx1L_XoNALAJtBJvjtT4-3">
          <mxGeometry relative="1" as="geometry" />
        </mxCell>
        <mxCell id="rx1L_XoNALAJtBJvjtT4-22" value="" style="edgeStyle=orthogonalEdgeStyle;orthogonalLoop=1;jettySize=auto;html=1;fontSize=18;curved=1;dashed=1;fillColor=#e51400;strokeColor=#B20000;" edge="1" parent="1" source="rx1L_XoNALAJtBJvjtT4-2" target="rx1L_XoNALAJtBJvjtT4-21">
          <mxGeometry relative="1" as="geometry" />
        </mxCell>
        <mxCell id="rx1L_XoNALAJtBJvjtT4-2" value="Constructor&amp;lt;?&amp;gt;[] ctors = determineConstructorsFromBeanPostProcessors" style="rounded=1;whiteSpace=wrap;html=1;absoluteArcSize=1;arcSize=14;strokeWidth=2;fontSize=18;" vertex="1" parent="1">
          <mxGeometry x="118.5" y="280" width="603" height="50" as="geometry" />
        </mxCell>
        <mxCell id="rx1L_XoNALAJtBJvjtT4-7" value="true" style="edgeStyle=orthogonalEdgeStyle;rounded=0;orthogonalLoop=1;jettySize=auto;html=1;entryX=0.5;entryY=0.167;entryDx=0;entryDy=0;entryPerimeter=0;fontSize=18;exitX=0;exitY=0.5;exitDx=0;exitDy=0;exitPerimeter=0;" edge="1" parent="1" source="rx1L_XoNALAJtBJvjtT4-3" target="rx1L_XoNALAJtBJvjtT4-6">
          <mxGeometry x="-0.4287" relative="1" as="geometry">
            <mxPoint as="offset" />
          </mxGeometry>
        </mxCell>
        <mxCell id="rx1L_XoNALAJtBJvjtT4-10" value="false" style="edgeStyle=orthogonalEdgeStyle;rounded=0;orthogonalLoop=1;jettySize=auto;html=1;fontSize=18;exitX=1;exitY=0.5;exitDx=0;exitDy=0;exitPerimeter=0;" edge="1" parent="1" source="rx1L_XoNALAJtBJvjtT4-3" target="rx1L_XoNALAJtBJvjtT4-9">
          <mxGeometry x="-0.2308" relative="1" as="geometry">
            <mxPoint as="offset" />
          </mxGeometry>
        </mxCell>
        <mxCell id="rx1L_XoNALAJtBJvjtT4-3" value="ctors != null&amp;nbsp;" style="strokeWidth=2;html=1;shape=mxgraph.flowchart.decision;whiteSpace=wrap;fontSize=18;" vertex="1" parent="1">
          <mxGeometry x="350" y="360" width="140" height="100" as="geometry" />
        </mxCell>
        <mxCell id="rx1L_XoNALAJtBJvjtT4-12" style="edgeStyle=orthogonalEdgeStyle;rounded=0;orthogonalLoop=1;jettySize=auto;html=1;entryX=0;entryY=0.5;entryDx=0;entryDy=0;entryPerimeter=0;fontSize=18;exitX=0.5;exitY=1;exitDx=0;exitDy=0;" edge="1" parent="1" source="rx1L_XoNALAJtBJvjtT4-6" target="rx1L_XoNALAJtBJvjtT4-11">
          <mxGeometry relative="1" as="geometry" />
        </mxCell>
        <mxCell id="rx1L_XoNALAJtBJvjtT4-24" value="" style="edgeStyle=orthogonalEdgeStyle;curved=1;orthogonalLoop=1;jettySize=auto;html=1;fontSize=18;dashed=1;fillColor=#e51400;strokeColor=#B20000;" edge="1" parent="1" source="rx1L_XoNALAJtBJvjtT4-6" target="rx1L_XoNALAJtBJvjtT4-23">
          <mxGeometry relative="1" as="geometry" />
        </mxCell>
        <mxCell id="rx1L_XoNALAJtBJvjtT4-6" value="autowireConstructor" style="rounded=1;whiteSpace=wrap;html=1;absoluteArcSize=1;arcSize=14;strokeWidth=2;fontSize=18;" vertex="1" parent="1">
          <mxGeometry x="180" y="460" width="180" height="60" as="geometry" />
        </mxCell>
        <mxCell id="rx1L_XoNALAJtBJvjtT4-13" style="edgeStyle=orthogonalEdgeStyle;rounded=0;orthogonalLoop=1;jettySize=auto;html=1;entryX=1;entryY=0.5;entryDx=0;entryDy=0;entryPerimeter=0;fontSize=18;exitX=0.5;exitY=1;exitDx=0;exitDy=0;" edge="1" parent="1" source="rx1L_XoNALAJtBJvjtT4-9" target="rx1L_XoNALAJtBJvjtT4-11">
          <mxGeometry relative="1" as="geometry" />
        </mxCell>
        <mxCell id="rx1L_XoNALAJtBJvjtT4-9" value="instantiateBean" style="rounded=1;whiteSpace=wrap;html=1;absoluteArcSize=1;arcSize=14;strokeWidth=2;fontSize=18;" vertex="1" parent="1">
          <mxGeometry x="480" y="460" width="180" height="60" as="geometry" />
        </mxCell>
        <mxCell id="rx1L_XoNALAJtBJvjtT4-16" value="" style="edgeStyle=orthogonalEdgeStyle;rounded=0;orthogonalLoop=1;jettySize=auto;html=1;fontSize=18;" edge="1" parent="1" source="rx1L_XoNALAJtBJvjtT4-11" target="rx1L_XoNALAJtBJvjtT4-14">
          <mxGeometry relative="1" as="geometry" />
        </mxCell>
        <mxCell id="rx1L_XoNALAJtBJvjtT4-11" value="return BeanWrapper" style="strokeWidth=2;html=1;shape=mxgraph.flowchart.terminator;whiteSpace=wrap;fontSize=18;" vertex="1" parent="1">
          <mxGeometry x="345" y="560" width="150" height="70" as="geometry" />
        </mxCell>
        <mxCell id="rx1L_XoNALAJtBJvjtT4-17" style="edgeStyle=orthogonalEdgeStyle;rounded=0;orthogonalLoop=1;jettySize=auto;html=1;fontSize=18;" edge="1" parent="1" source="rx1L_XoNALAJtBJvjtT4-14" target="rx1L_XoNALAJtBJvjtT4-15">
          <mxGeometry relative="1" as="geometry" />
        </mxCell>
        <mxCell id="rx1L_XoNALAJtBJvjtT4-14" value="populateBean" style="rounded=1;whiteSpace=wrap;html=1;absoluteArcSize=1;arcSize=14;strokeWidth=2;fontSize=18;" vertex="1" parent="1">
          <mxGeometry x="330" y="660" width="180" height="60" as="geometry" />
        </mxCell>
        <mxCell id="rx1L_XoNALAJtBJvjtT4-19" style="edgeStyle=orthogonalEdgeStyle;rounded=0;orthogonalLoop=1;jettySize=auto;html=1;fontSize=18;" edge="1" parent="1" source="rx1L_XoNALAJtBJvjtT4-15" target="rx1L_XoNALAJtBJvjtT4-18">
          <mxGeometry relative="1" as="geometry" />
        </mxCell>
        <mxCell id="rx1L_XoNALAJtBJvjtT4-15" value="initializeBean" style="rounded=1;whiteSpace=wrap;html=1;absoluteArcSize=1;arcSize=14;strokeWidth=2;fontSize=18;" vertex="1" parent="1">
          <mxGeometry x="330" y="750" width="180" height="60" as="geometry" />
        </mxCell>
        <mxCell id="rx1L_XoNALAJtBJvjtT4-18" value="return bean" style="strokeWidth=2;html=1;shape=mxgraph.flowchart.terminator;whiteSpace=wrap;fontSize=18;" vertex="1" parent="1">
          <mxGeometry x="370" y="840" width="100" height="60" as="geometry" />
        </mxCell>
        <mxCell id="rx1L_XoNALAJtBJvjtT4-21" value="这个函数名称就很见名知意，从 BeanPostProcessor 中探测构造器" style="shape=document;whiteSpace=wrap;html=1;boundedLbl=1;fontSize=18;rounded=1;arcSize=14;strokeWidth=2;size=0.2;" vertex="1" parent="1">
          <mxGeometry x="-210" y="350" width="240" height="100" as="geometry" />
        </mxCell>
        <mxCell id="rx1L_XoNALAJtBJvjtT4-23" value="通过构造器去实例化 bean 并进行依赖注入" style="shape=document;whiteSpace=wrap;html=1;boundedLbl=1;fontSize=18;rounded=1;arcSize=14;strokeWidth=2;size=0.1;" vertex="1" parent="1">
          <mxGeometry x="-185" y="490" width="190" height="80" as="geometry" />
        </mxCell>
      </root>
    </mxGraphModel>
  </diagram>
</mxfile>
